<svg width="144" height="47" viewBox="0 0 144 47" fill="none" xmlns="http://www.w3.org/2000/svg">
<path d="M55.5641 29.85H49.4016L48.2016 34H45.2516L50.7391 16.75H54.3391L59.8391 34H56.7641L55.5641 29.85ZM50.0016 27.6125H54.9516L52.4891 19L50.0016 27.6125ZM68.0918 22.1875C68.0918 21.3958 67.9376 20.7625 67.6293 20.2875C67.3293 19.8125 66.9001 19.4667 66.3418 19.25C65.7918 19.0333 65.1418 18.925 64.3918 18.925H62.3168V25.6375H64.4293C65.1543 25.6375 65.7918 25.5292 66.3418 25.3125C66.8918 25.0958 67.321 24.7375 67.6293 24.2375C67.9376 23.7375 68.0918 23.0542 68.0918 22.1875ZM71.1418 22.1625C71.1418 23.5042 70.8543 24.5917 70.2793 25.425C69.7126 26.2583 68.921 26.8708 67.9043 27.2625C66.8876 27.6542 65.721 27.85 64.4043 27.85H62.3168V34H59.4168V16.75H64.2043C66.371 16.75 68.0668 17.1958 69.2918 18.0875C70.5251 18.9708 71.1418 20.3292 71.1418 22.1625ZM81.707 16.75V18.9625H77.982V31.775H81.707V34H71.332V31.775H75.057V18.9625H71.332V16.75H81.707ZM107.95 16.75L105.562 34H102.175L100.475 21.2375L98.7125 34H95.25L93.05 16.75H95.85L97.2125 31.2L99.0375 18.75H102.025L103.75 31.2L105.363 16.75H107.95ZM114.428 20.8V31.95H118.015V34H107.678V31.95H111.628V22.85H107.803V20.8H114.428ZM112.478 14.3375C113.028 14.3375 113.469 14.5042 113.803 14.8375C114.144 15.1708 114.315 15.5875 114.315 16.0875C114.315 16.5875 114.144 17.0083 113.803 17.35C113.469 17.6917 113.028 17.8625 112.478 17.8625C111.944 17.8625 111.507 17.6917 111.165 17.35C110.824 17.0083 110.653 16.5875 110.653 16.0875C110.653 15.5875 110.824 15.1708 111.165 14.8375C111.507 14.5042 111.944 14.3375 112.478 14.3375ZM130.83 20.8L125.493 26.7L131.393 34H127.968L122.293 26.775L127.568 20.8H130.83ZM122.093 15.1875V34H119.293V15.5L122.093 15.1875ZM138.408 20.8V31.95H141.996V34H131.658V31.95H135.608V22.85H131.783V20.8H138.408ZM136.458 14.3375C137.008 14.3375 137.45 14.5042 137.783 14.8375C138.125 15.1708 138.296 15.5875 138.296 16.0875C138.296 16.5875 138.125 17.0083 137.783 17.35C137.45 17.6917 137.008 17.8625 136.458 17.8625C135.925 17.8625 135.487 17.6917 135.146 17.35C134.804 17.0083 134.633 16.5875 134.633 16.0875C134.633 15.5875 134.804 15.1708 135.146 14.8375C135.487 14.5042 135.925 14.3375 136.458 14.3375Z" fill="#2196F3"/>
<path d="M37.3987 38.6559C37.7139 39.5433 37.3198 40.1006 36.6893 39.6591L30.9223 35.621C30.6296 35.4161 30.3592 35.0361 30.2128 34.6242L26.8571 25.1779C26.7108 24.7661 26.7109 24.3849 26.8572 24.178L28.1647 22.3289C28.4801 21.883 28.0859 20.7737 27.4553 20.3321L25.7853 19.1627C25.1547 18.7212 24.7606 19.2786 25.0759 20.166L26.3835 23.8463C26.5298 24.2581 26.5298 24.6393 26.3835 24.8462L23.0278 29.5932C22.8815 29.8002 22.611 29.8014 22.3184 29.5965L16.5514 25.5585C15.9208 25.1169 15.5267 24.0076 15.842 23.5617L25.9113 9.32224C26.2266 8.87635 27.0148 9.42829 27.3301 10.3157L37.3987 38.6559Z" fill="url(#paint0_linear_739_14694)"/>
<path d="M30.401 40.5537C30.4377 41.4745 29.8513 41.9001 29.3455 41.3197L13.1934 22.7867C12.6876 22.2063 12.6418 21.0554 13.111 20.7149L28.0933 9.84194C28.5624 9.50148 29.1946 10.2269 29.2313 11.1477L30.401 40.5537ZM19.254 27.7623C18.7849 28.1028 18.8308 29.2538 19.3365 29.8341L23.2029 34.2703C23.7086 34.8507 24.2951 34.4251 24.2584 33.5043L23.8957 24.393L19.254 27.7623ZM23.8957 24.393L26.1939 22.7256C26.6631 22.3852 26.6173 21.2341 26.1115 20.6538L24.7719 19.1168C24.2662 18.5365 23.6798 18.962 23.7164 19.8827L23.8957 24.393Z" fill="url(#paint1_linear_739_14694)"/>
<path d="M15.8872 13.4894C16.2025 13.0435 16.9902 13.5951 17.3056 14.4825L27.3754 42.8235C27.6906 43.7109 27.2963 44.2681 26.6658 43.8267L20.8991 39.7888C20.6064 39.5839 20.336 39.2039 20.1897 38.7921L17.3062 30.6763C16.9909 29.7888 16.2027 29.2369 15.8874 29.6828L13.0039 33.7605C12.8576 33.9674 12.5871 33.9687 12.2945 33.7638L6.52698 29.7253C5.89662 29.2836 5.50299 28.1748 5.81822 27.729L15.8872 13.4894ZM15.8873 26.6809C16.2026 27.5684 16.9909 28.1202 17.3061 27.6743L18.141 26.4932C18.4562 26.0473 18.0621 24.9381 17.4316 24.4965L15.7615 23.3271C15.1309 22.8856 14.7367 23.443 15.0521 24.3305L15.8873 26.6809Z" fill="url(#paint2_linear_739_14694)"/>
<path d="M21.6677 44.8214C21.983 45.7088 21.5889 46.2662 20.9583 45.8247L15.1921 41.7871C14.8994 41.5822 14.629 41.2022 14.4827 40.7903L11.1262 31.3425C10.9799 30.9306 10.9799 30.5494 11.1262 30.3425L12.4338 28.4934C12.7491 28.0475 12.355 26.9382 11.7244 26.4967L10.0543 25.3273C9.42375 24.8857 9.02963 25.4431 9.34494 26.3306L10.6525 30.0109C10.7988 30.4227 10.7989 30.8038 10.6526 31.0108L7.29684 35.7587C7.15052 35.9657 6.88007 35.967 6.58738 35.762L0.820447 31.724C0.189864 31.2824 -0.204251 30.1731 0.111041 29.7272L10.1803 15.4869C10.4956 15.041 11.2839 15.5929 11.5992 16.4804L21.6677 44.8214Z" fill="url(#paint3_linear_739_14694)"/>
<defs>
<linearGradient id="paint0_linear_739_14694" x1="26.6202" y1="9.31867" x2="12.0299" y2="30.1558" gradientUnits="userSpaceOnUse">
<stop stop-color="#9F9F9F"/>
<stop offset="1" stop-color="white"/>
</linearGradient>
<linearGradient id="paint1_linear_739_14694" x1="28.8241" y1="10.0214" x2="8.54942" y2="27.6914" gradientUnits="userSpaceOnUse">
<stop stop-color="#2196F3"/>
<stop offset="1" stop-color="white"/>
</linearGradient>
<linearGradient id="paint2_linear_739_14694" x1="16.5966" y1="13.4861" x2="2.0063" y2="34.3232" gradientUnits="userSpaceOnUse">
<stop stop-color="#9F9F9F"/>
<stop offset="1" stop-color="white"/>
</linearGradient>
<linearGradient id="paint3_linear_739_14694" x1="10.8893" y1="15.4832" x2="-3.70158" y2="36.3212" gradientUnits="userSpaceOnUse">
<stop stop-color="#9F9F9F"/>
<stop offset="1" stop-color="white"/>
</linearGradient>
</defs>
</svg>
