<svg width="315" height="198" viewBox="0 0 315 198" fill="none" xmlns="http://www.w3.org/2000/svg">
<path d="M29.5794 162.608H12.3244L8.96438 174.228H0.704375L16.0694 125.928H26.1494L41.5494 174.228H32.9394L29.5794 162.608ZM14.0044 156.343H27.8644L20.9694 132.228L14.0044 156.343ZM70.057 141.153C70.057 138.936 69.6254 137.163 68.762 135.833C67.922 134.503 66.7204 133.535 65.157 132.928C63.617 132.321 61.797 132.018 59.697 132.018H53.887V150.813H59.802C61.832 150.813 63.617 150.51 65.157 149.903C66.697 149.296 67.8987 148.293 68.762 146.893C69.6254 145.493 70.057 143.58 70.057 141.153ZM78.597 141.083C78.597 144.84 77.792 147.885 76.182 150.218C74.5954 152.551 72.3787 154.266 69.532 155.363C66.6854 156.46 63.4187 157.008 59.732 157.008H53.887V174.228H45.767V125.928H59.172C65.2387 125.928 69.987 127.176 73.417 129.673C76.8704 132.146 78.597 135.95 78.597 141.083ZM113.58 125.928V132.123H103.15V167.998H113.58V174.228H84.5297V167.998H94.9597V132.123H84.5297V125.928H113.58ZM197.86 125.928L191.175 174.228H181.69L176.93 138.493L171.995 174.228H162.3L156.14 125.928H163.98L167.795 166.388L172.905 131.528H181.27L186.1 166.388L190.615 125.928H197.86ZM221.398 137.268V168.488H231.443V174.228H202.498V168.488H213.558V143.008H202.848V137.268H221.398ZM215.938 119.173C217.478 119.173 218.714 119.64 219.648 120.573C220.604 121.506 221.083 122.673 221.083 124.073C221.083 125.473 220.604 126.651 219.648 127.608C218.714 128.565 217.478 129.043 215.938 129.043C214.444 129.043 213.219 128.565 212.263 127.608C211.306 126.651 210.828 125.473 210.828 124.073C210.828 122.673 211.306 121.506 212.263 120.573C213.219 119.64 214.444 119.173 215.938 119.173ZM272.725 137.268L257.78 153.788L274.3 174.228H264.71L248.82 153.998L263.59 137.268H272.725ZM248.26 121.553V174.228H240.42V122.428L248.26 121.553ZM299.343 137.268V168.488H309.388V174.228H280.443V168.488H291.503V143.008H280.793V137.268H299.343ZM293.883 119.173C295.423 119.173 296.66 119.64 297.593 120.573C298.55 121.506 299.028 122.673 299.028 124.073C299.028 125.473 298.55 126.651 297.593 127.608C296.66 128.565 295.423 129.043 293.883 129.043C292.39 129.043 291.165 128.565 290.208 127.608C289.251 126.651 288.773 125.473 288.773 124.073C288.773 122.673 289.251 121.506 290.208 120.573C291.165 119.64 292.39 119.173 293.883 119.173Z" fill="#1769AA"/>
<path d="M191.54 98.7104C191.855 99.5978 191.461 100.155 190.83 99.7137L174.154 88.0365C173.861 87.8316 173.591 87.4516 173.444 87.0397L165.106 63.5694C164.791 62.6819 164.002 62.13 163.687 62.5759L155.349 74.3691C155.202 74.576 154.932 74.5773 154.639 74.3723L137.963 62.6951C137.332 62.2536 136.938 61.1443 137.253 60.6984L163.687 23.3132C164.002 22.8673 164.791 23.4192 165.106 24.3067L191.54 98.7104ZM163.687 59.5707C164.002 60.4582 164.791 61.0102 165.106 60.5642L169.152 54.8416C169.467 54.3957 169.073 53.2864 168.442 52.8449L160.351 47.1792C159.72 46.7376 159.326 47.295 159.641 48.1824L163.687 59.5707Z" fill="url(#paint0_linear_739_14733)"/>
<path d="M173.681 103.408C173.718 104.329 173.131 104.754 172.626 104.174L159.25 88.826C159.015 88.5567 158.86 88.1276 158.843 87.7002L157.874 63.3513C157.837 62.4305 157.205 61.7051 156.736 62.0455L144.33 71.0482C144.112 71.2062 143.834 71.1376 143.599 70.8683L130.221 55.5183C129.715 54.938 129.669 53.787 130.138 53.4465L169.471 24.9031C169.94 24.5626 170.572 25.288 170.609 26.2088L173.681 103.408ZM157.709 59.2042C157.746 60.125 158.378 60.8504 158.847 60.51L164.867 56.1411C165.336 55.8007 165.29 54.6497 164.784 54.0693L158.294 46.6228C157.789 46.0425 157.202 46.468 157.239 47.3888L157.709 59.2042Z" fill="url(#paint1_linear_739_14733)"/>
<path d="M139.384 33.4192C139.7 32.9737 140.487 33.5252 140.803 34.4124L167.237 108.816C167.552 109.703 167.158 110.26 166.527 109.819L113.659 72.7995C113.028 72.3578 112.635 71.249 112.95 70.8032L139.384 33.4192ZM131.518 83.7981C131.203 84.244 131.597 85.3533 132.228 85.7948L147.959 96.8102C148.59 97.2518 148.984 96.6943 148.669 95.8069L140.802 73.668C140.487 72.7806 139.699 72.2287 139.384 72.6746L131.518 83.7981ZM139.384 69.6694C139.7 70.5569 140.488 71.1087 140.803 70.6628L144.849 64.9409C145.164 64.495 144.77 63.3858 144.14 62.9442L136.047 57.2781C135.417 56.8365 135.023 57.394 135.338 58.2814L139.384 69.6694Z" fill="url(#paint2_linear_739_14733)"/>
<path d="M153.399 113.648C153.714 114.536 153.32 115.093 152.69 114.652L99.8224 77.6337C99.1918 77.1921 98.7977 76.0829 99.113 75.6369L125.547 38.2508C125.862 37.8049 126.65 38.3568 126.966 39.2443L153.399 113.648ZM117.682 88.6378C117.366 89.0837 117.76 90.193 118.391 90.6345L134.122 101.649C134.752 102.091 135.146 101.534 134.831 100.646L126.966 78.5078C126.65 77.6204 125.862 77.0685 125.547 77.5144L117.682 88.6378ZM125.547 74.5085C125.862 75.3959 126.65 75.9478 126.966 75.5019L131.011 69.7801C131.327 69.3342 130.933 68.2249 130.302 67.7834L122.211 62.1177C121.58 61.6762 121.186 62.2336 121.501 63.121L125.547 74.5085Z" fill="url(#paint3_linear_739_14733)"/>
<defs>
<linearGradient id="paint0_linear_739_14733" x1="164.396" y1="23.3098" x2="128.128" y2="75.1069" gradientUnits="userSpaceOnUse">
<stop stop-color="#9F9F9F"/>
<stop offset="1" stop-color="white"/>
</linearGradient>
<linearGradient id="paint1_linear_739_14733" x1="170.202" y1="25.0826" x2="119.805" y2="69.0042" gradientUnits="userSpaceOnUse">
<stop stop-color="#2196F3"/>
<stop offset="1" stop-color="white"/>
</linearGradient>
<linearGradient id="paint2_linear_739_14733" x1="140.093" y1="33.4157" x2="103.825" y2="85.2117" gradientUnits="userSpaceOnUse">
<stop stop-color="#9F9F9F"/>
<stop offset="1" stop-color="white"/>
</linearGradient>
<linearGradient id="paint3_linear_739_14733" x1="126.256" y1="38.2471" x2="89.9867" y2="90.045" gradientUnits="userSpaceOnUse">
<stop stop-color="#9F9F9F"/>
<stop offset="1" stop-color="white"/>
</linearGradient>
</defs>
</svg>
